<svg xmlns="http://www.w3.org/2000/svg" xmlns:xlink="http://www.w3.org/1999/xlink" viewBox="0 0 77.23 36.62"><defs><style>.cls-1,.cls-2,.cls-3{fill:none;}.cls-2{clip-rule:evenodd;}.cls-3{fill-rule:evenodd;}.cls-4{clip-path:url(#clip-path);}.cls-5{clip-path:url(#clip-path-2);}.cls-6{fill:#009ec4;}.cls-7{fill:#40a0c4;}.cls-8{clip-path:url(#clip-path-31);}.cls-9{clip-path:url(#clip-path-50);}</style><clipPath id="clip-path"><rect class="cls-1" y="0.21" width="77.43" height="36.4"/></clipPath><clipPath id="clip-path-2"><polyline class="cls-2" points="0 0.21 0 36.9 77.72 36.9 77.72 0.21"/></clipPath><clipPath id="clip-path-31"><polyline class="cls-1" points="0 0.21 0 36.87 77.51 36.87 77.51 0.21"/></clipPath><clipPath id="clip-path-50"><polyline class="cls-1" points="0 0.21 0 36.9 77.72 36.9 77.72 0.21"/></clipPath></defs><title>Asset 2</title><g id="Layer_2" data-name="Layer 2"><g id="Layer_1-2" data-name="Layer 1"><g class="cls-4"><g class="cls-5"><path class="cls-6" d="M10.56,0h0C4.43,0,.17,4.6.17,11.17s4.05,10.93,10,10.93h0c4.36,0,7.65-2.09,9.28-5.57L20.16,7A9.48,9.48,0,0,0,10.56,0Zm-.1,17.93h0c-2.94,0-4.88-2.75-4.88-6.86,0-3.45,1.52-6.93,4.92-6.93S15.27,7.55,15.27,11C15.27,15.21,13.37,17.93,10.46,17.93Z"/></g><g class="cls-5"><path class="cls-6" d="M42.46.31H35.91L33.66,7.45c-.62,2.09-1.28,4.6-1.84,7-.45-2.3-1-4.66-1.66-6.93L28.05.31H21.44L20.05,21.76h4.78l.42-8.18s.21-4.91.31-7.35c.45,2.37,1,4.8,1.63,6.93l2.25,8.25h4l2.6-8.35c.69-2.16,1.42-4.63,2-7,0,2.75.1,5.4.17,7.45l.35,8.25h3.57l1.21-4Z"/></g><g class="cls-5"><path class="cls-6" d="M59.26,10.65h0L56,.31H49.56L43,21.76h5.3s1.42-5.12,1.49-5.4h5.71c.11.24,1.63,5.4,1.63,5.4h5.51l-1-3.06a11,11,0,0,1-2.49-7.38A4.53,4.53,0,0,1,59.26,10.65Zm-8.62,1.74h0c.1-.45,1.18-4.21,1.18-4.21l.76-3.24a1.17,1.17,0,0,0,0-.24l.21.84.69,2.65s1.11,3.76,1.21,4.21Z"/></g><g class="cls-5"><path class="cls-6" d="M60.09,11.31h0c0,6.65,4.29,10.79,11.19,10.79a15.88,15.88,0,0,0,5.82-.94l.14-.07L76.47,17l-.24.07a10.73,10.73,0,0,1-3.88.7c-4.09,0-6.89-2.51-6.89-6.68s2.46-6.82,6.44-6.82A9.7,9.7,0,0,1,75.81,5l.21.1L77.12,1,77,.91A13.16,13.16,0,0,0,71.72,0C64.76,0,60.09,4.53,60.09,11.31Z"/></g><g class="cls-5"><polygon class="cls-7" points="1.91 25.13 1.91 25.13 0.62 25.13 0.76 24.4 4.16 24.4 4.02 25.13 2.74 25.13 1.97 29.1 1.18 29.1 1.91 25.13"/></g><g class="cls-5"><path class="cls-7" d="M3.46,29.1h0l.94-4.94h.8l-.38,2.05A1.44,1.44,0,0,1,6,25.62a.83.83,0,0,1,.83.94,3.9,3.9,0,0,1-.07.59L6.37,29.1H5.54l.38-1.91c0-.1,0-.28,0-.42s-.1-.49-.42-.49-.83.49-1,1.22l-.31,1.6Z"/></g><g class="cls-5"><path class="cls-7" d="M9.56,28.89h0a2.56,2.56,0,0,1-1.18.28A1.26,1.26,0,0,1,7,27.78,2.07,2.07,0,0,1,8.9,25.62a1,1,0,0,1,1.11,1c0,.87-.94,1.15-2.22,1.11a.84.84,0,0,0,.07.49.8.8,0,0,0,.69.35,1.85,1.85,0,0,0,.93-.24ZM8.8,26.25h0a1.07,1.07,0,0,0-.94.87c.83,0,1.39-.1,1.39-.52C9.25,26.39,9.07,26.25,8.8,26.25Z"/></g><g class="cls-5"><path class="cls-7" d="M15.38,26.28h0a3.27,3.27,0,0,1-.83,2.23,2.38,2.38,0,0,1-1.66.66A1.79,1.79,0,0,1,11,27.26a3.25,3.25,0,0,1,.9-2.26,2.3,2.3,0,0,1,1.63-.66A1.76,1.76,0,0,1,15.38,26.28Zm-2.84-.87h0a2.74,2.74,0,0,0-.66,1.78c0,.73.31,1.32,1.11,1.32a1.29,1.29,0,0,0,.9-.42,2.64,2.64,0,0,0,.62-1.78c0-.63-.21-1.29-1.07-1.29A1.25,1.25,0,0,0,12.54,25.41Z"/></g><g class="cls-5"><path class="cls-7" d="M15.31,29.1h0L15.69,27c.1-.49.14-1,.17-1.29h.69a5.27,5.27,0,0,1-.07.7h0a1.22,1.22,0,0,1,1-.8,1.49,1.49,0,0,1,.17,0l-.14.77h-.17c-.55,0-.93.59-1.07,1.32L16.1,29.1Z"/></g><g class="cls-5"><path class="cls-7" d="M17.46,29.69h0a1.81,1.81,0,0,0,.9.21c.52,0,.94-.24,1.07-1l.1-.38h0a1.22,1.22,0,0,1-1,.63,1.1,1.1,0,0,1-1.07-1.22,2.22,2.22,0,0,1,2.22-2.26,3,3,0,0,1,1.18.24l-.52,2.82a2.52,2.52,0,0,1-.69,1.5,2,2,0,0,1-1.25.38,2.23,2.23,0,0,1-1.07-.24Zm2.46-3.34h0a1.53,1.53,0,0,0-.45-.07,1.4,1.4,0,0,0-1.21,1.5c0,.35.14.66.52.66s.83-.45.93-1.08Z"/></g><g class="cls-5"><path class="cls-7" d="M23,29.1h0a6.21,6.21,0,0,1,0-.77,1.38,1.38,0,0,1-1.21.84,1,1,0,0,1-1-1.15,2.33,2.33,0,0,1,2.39-2.4,2.88,2.88,0,0,1,1,.17l-.35,1.78a8.11,8.11,0,0,0-.14,1.53Zm.31-2.82h0c-.07,0-.17,0-.35,0-.73,0-1.32.87-1.32,1.64,0,.35.14.63.48.63s.83-.45,1-1.32Z"/></g><g class="cls-5"><path class="cls-7" d="M24.14,29.1h0l.45-2.33c.07-.42.14-.77.17-1h.73l-.1.59h0a1.45,1.45,0,0,1,1.21-.7.84.84,0,0,1,.87.94,3.06,3.06,0,0,1-.07.56l-.38,2h-.8l.35-1.91a1.7,1.7,0,0,0,0-.42c0-.28-.1-.49-.42-.49s-.83.45-1,1.25l-.31,1.57Z"/></g><g class="cls-5"><path class="cls-7" d="M27.6,29.1h0l.66-3.38h.8l-.62,3.38Zm.8-4.32h0a.47.47,0,0,1,.48-.49.41.41,0,0,1,.42.45.5.5,0,0,1-.52.49C28.54,25.24,28.4,25.06,28.4,24.79Z"/></g><g class="cls-5"><path class="cls-7" d="M28.78,28.61h0l1.35-1.46a8,8,0,0,1,.76-.77H29.33l.14-.66H32l-.1.52-1.32,1.43c-.31.31-.49.52-.76.77h1.7l-.1.66h-2.7Z"/></g><g class="cls-5"><path class="cls-7" d="M33.91,29.1h0a6.21,6.21,0,0,1,0-.77,1.38,1.38,0,0,1-1.21.84,1,1,0,0,1-1-1.15,2.33,2.33,0,0,1,2.39-2.4,2.88,2.88,0,0,1,1,.17l-.35,1.78a8.11,8.11,0,0,0-.14,1.53Zm.31-2.82h0c-.07,0-.17,0-.35,0-.73,0-1.32.87-1.32,1.64,0,.35.14.63.49.63s.83-.45,1-1.32Z"/></g><g class="cls-5"><path class="cls-7" d="M36.78,24.86h0l-.17.87h.76l-.1.63H36.5l-.28,1.36a2.06,2.06,0,0,0-.07.49c0,.17.1.28.31.28h.28l-.07.63a2.34,2.34,0,0,1-.52.07c-.55,0-.8-.31-.8-.7a2.16,2.16,0,0,1,.07-.63l.28-1.5h-.45l.1-.63h.45l.14-.66Z"/></g><g class="cls-5"><path class="cls-7" d="M37,29.1h0l.66-3.38h.8l-.62,3.38Zm.8-4.32h0a.47.47,0,0,1,.49-.49.41.41,0,0,1,.42.45.5.5,0,0,1-.52.49C38,25.24,37.82,25.06,37.82,24.79Z"/></g><g class="cls-5"><path class="cls-7" d="M41.84,27h0a2,2,0,0,1-1.94,2.12,1.31,1.31,0,0,1-1.39-1.39,2,2,0,0,1,1.94-2.16A1.34,1.34,0,0,1,41.84,27Zm-2.49.7h0c0,.49.24.8.66.8.59,0,1-.84,1-1.5a.71.71,0,0,0-.66-.8C39.72,26.25,39.34,27.12,39.34,27.74Z"/></g><g class="cls-5"><path class="cls-7" d="M41.84,29.1h0l.45-2.33c.07-.42.14-.77.17-1h.73l-.1.59h0a1.45,1.45,0,0,1,1.21-.7.84.84,0,0,1,.87.94,3.06,3.06,0,0,1-.07.56l-.38,2h-.8l.35-1.91a1.7,1.7,0,0,0,0-.42c0-.28-.1-.49-.42-.49s-.83.45-1,1.25l-.31,1.57Z"/></g><g class="cls-5"><path class="cls-7" d="M46.34,29.1h0l.52-2.75h-.45l.14-.63H47l0-.17a2,2,0,0,1,.59-1.15,1.32,1.32,0,0,1,.86-.31,1.7,1.7,0,0,1,.52.07l-.18.66a.82.82,0,0,0-.31-.07c-.38,0-.59.35-.69.8v.17h.69l-.14.63h-.69l-.52,2.75Z"/></g><g class="cls-5"><path class="cls-7" d="M51.43,27h0a2,2,0,0,1-1.94,2.12,1.33,1.33,0,0,1-1.38-1.39,2,2,0,0,1,2-2.16A1.31,1.31,0,0,1,51.43,27Zm-2.49.7h0c0,.49.24.8.66.8.62,0,1-.84,1-1.5,0-.35-.14-.8-.62-.8C49.32,26.25,48.93,27.12,48.93,27.74Z"/></g><g class="cls-5"><path class="cls-7" d="M51.46,29.1h0L51.85,27c.1-.49.14-1,.17-1.29h.69a4.91,4.91,0,0,1-.07.7h0a1.22,1.22,0,0,1,1-.8,1.34,1.34,0,0,1,.17,0l-.14.77h-.17c-.55,0-.94.59-1.08,1.32l-.24,1.36Z"/></g><g class="cls-5"><path class="cls-7" d="M58.39,29.1h0l.31-2.19c.07-.49.18-1.15.28-1.74h0c-.24.56-.52,1.15-.76,1.67L57,29h-.62l-.24-2.16c-.07-.52-.1-1.15-.14-1.71-.14.56-.28,1.25-.38,1.74L55.1,29.1h-.73l1.18-4.7h1.08l.24,2.19c0,.42.07.9.11,1.36.17-.45.42-.94.59-1.36L58.7,24.4h1.08l-.62,4.7Z"/></g><g class="cls-5"><path class="cls-7" d="M61.89,29.1h0a7.57,7.57,0,0,1,.07-.77h0a1.31,1.31,0,0,1-1.21.84,1,1,0,0,1-1-1.15,2.35,2.35,0,0,1,2.39-2.4,3.08,3.08,0,0,1,1,.17l-.38,1.78a12.56,12.56,0,0,0-.14,1.53Zm.31-2.82h0c-.07,0-.18,0-.31,0-.76,0-1.32.87-1.32,1.64,0,.35.11.63.48.63s.83-.45,1-1.32Z"/></g><g class="cls-5"><path class="cls-7" d="M65.49,29h0a2.24,2.24,0,0,1-1,.21,1.29,1.29,0,0,1-1.38-1.36,2.12,2.12,0,0,1,2.15-2.16,2.66,2.66,0,0,1,.69.1l-.21.63a1.69,1.69,0,0,0-.52-.1A1.35,1.35,0,0,0,64,27.71c0,.52.28.8.73.8a1.91,1.91,0,0,0,.72-.14Z"/></g><g class="cls-5"><path class="cls-7" d="M65.7,29.1h0l.93-4.94h.8L67,26.21a1.5,1.5,0,0,1,1.14-.59.83.83,0,0,1,.83.94,3.38,3.38,0,0,1,0,.59l-.38,1.95h-.8l.35-1.91a1.47,1.47,0,0,0,0-.42c0-.28-.11-.49-.42-.49s-.83.49-1,1.22l-.31,1.6Z"/></g><g class="cls-5"><path class="cls-7" d="M69.16,29.1h0l.66-3.38h.8L70,29.1ZM70,24.79h0a.47.47,0,0,1,.48-.49.41.41,0,0,1,.42.45.5.5,0,0,1-.52.49C70.09,25.24,70,25.06,70,24.79Z"/></g><g class="cls-5"><path class="cls-7" d="M70.55,29.1h0L71,26.77c.07-.42.14-.77.17-1h.73l-.07.59a1.44,1.44,0,0,1,1.21-.7.84.84,0,0,1,.87.94,3.28,3.28,0,0,1-.07.56l-.38,2h-.79L73,27.19a1.88,1.88,0,0,0,.07-.42c0-.28-.11-.49-.45-.49s-.83.45-1,1.25l-.28,1.57Z"/></g><g class="cls-5"><path class="cls-7" d="M76.68,28.89h0a2.79,2.79,0,0,1-1.18.28,1.26,1.26,0,0,1-1.38-1.39A2,2,0,0,1,76,25.62a1,1,0,0,1,1.08,1c0,.87-.9,1.15-2.22,1.11a1.36,1.36,0,0,0,.1.49.81.81,0,0,0,.69.35,1.86,1.86,0,0,0,.94-.24Zm-.76-2.65h0a1,1,0,0,0-.94.87c.83,0,1.35-.1,1.35-.52A.37.37,0,0,0,75.92,26.25Z"/></g><g class="cls-8"><path class="cls-7" d="M1.49,35.19h0L.83,36.52H0l2.32-4.66h1l.59,4.66H3.08l-.14-1.32Zm1.42-.63h0l-.14-1.18a6.82,6.82,0,0,1-.07-.87h0a9.49,9.49,0,0,1-.38.87l-.55,1.18Z"/></g><g class="cls-8"><path class="cls-7" d="M7.55,33.14h0L7.1,35.47c-.07.42-.1.77-.14,1H6.23l.07-.59a1.54,1.54,0,0,1-1.18.7.86.86,0,0,1-.9-1,3.9,3.9,0,0,1,.07-.59l.38-1.91h.8L5.13,35a2.74,2.74,0,0,0-.07.49.4.4,0,0,0,.45.45c.38,0,.8-.42.94-1.15l.31-1.64Z"/></g><g class="cls-8"><path class="cls-7" d="M9.21,32.27h0L9,33.14H9.8l-.1.63H8.94l-.28,1.36a2.74,2.74,0,0,0-.07.49.29.29,0,0,0,.31.31.67.67,0,0,0,.28,0l-.07.63a1.26,1.26,0,0,1-.52.07c-.55,0-.8-.28-.8-.7a2.28,2.28,0,0,1,.07-.63l.28-1.5H7.69l.1-.63h.45l.14-.63Z"/></g><g class="cls-8"><path class="cls-7" d="M12.85,34.46h0a2,2,0,0,1-1.94,2.16,1.32,1.32,0,0,1-1.39-1.43,2,2,0,0,1,1.94-2.12A1.33,1.33,0,0,1,12.85,34.46Zm-2.49.73h0c0,.45.24.8.66.8.59,0,1-.84,1-1.53a.68.68,0,0,0-.66-.77C10.74,33.7,10.36,34.57,10.36,35.19Z"/></g><g class="cls-8"><path class="cls-7" d="M12.85,36.52h0l.45-2.33c.07-.38.1-.77.14-1h.73l-.1.59h0a1.4,1.4,0,0,1,1.18-.66.75.75,0,0,1,.8.7,1.39,1.39,0,0,1,1.18-.7.8.8,0,0,1,.83.91,3.49,3.49,0,0,1-.07.56l-.35,2h-.8l.35-1.88a1.7,1.7,0,0,0,0-.42c0-.31-.1-.49-.38-.49s-.8.45-.94,1.18l-.28,1.6h-.8l.38-1.91c0-.14,0-.28,0-.38s-.07-.49-.42-.49-.8.52-.94,1.18l-.28,1.6Z"/></g><g class="cls-8"><path class="cls-7" d="M20.43,36.52h0c0-.17,0-.45,0-.73a1.45,1.45,0,0,1-1.21.84,1.06,1.06,0,0,1-1-1.18,2.3,2.3,0,0,1,2.39-2.37,4.11,4.11,0,0,1,1,.14L21.3,35a8.38,8.38,0,0,0-.14,1.53Zm.31-2.78h0a.76.76,0,0,0-.31,0,1.56,1.56,0,0,0-1.35,1.6c0,.35.14.66.48.66s.87-.49,1-1.36Z"/></g><g class="cls-8"><path class="cls-7" d="M23.31,32.27h0l-.14.87h.73l-.1.63H23l-.24,1.36a1.27,1.27,0,0,0-.07.49c0,.17.07.31.28.31a.67.67,0,0,0,.28,0l-.07.63a1.18,1.18,0,0,1-.52.07c-.55,0-.8-.28-.8-.7a5.68,5.68,0,0,1,.07-.63l.28-1.5h-.45l.14-.63h.45l.1-.63Z"/></g><g class="cls-8"><path class="cls-7" d="M23.58,36.52h0l.62-3.38H25l-.62,3.38Zm.76-4.28h0a.46.46,0,0,1,.48-.49.4.4,0,0,1,.42.42.46.46,0,0,1-.49.49A.4.4,0,0,1,24.35,32.24Z"/></g><g class="cls-8"><path class="cls-7" d="M28.36,34.46h0a2,2,0,0,1-1.94,2.16A1.32,1.32,0,0,1,25,35.19,2,2,0,0,1,27,33.07,1.33,1.33,0,0,1,28.36,34.46Zm-2.49.73h0c0,.45.24.8.66.8.59,0,1-.84,1-1.53a.68.68,0,0,0-.66-.77C26.25,33.7,25.87,34.57,25.87,35.19Z"/></g><g class="cls-8"><path class="cls-7" d="M28.36,36.52h0l.45-2.33c.07-.38.14-.77.17-1h.73l-.07.59a1.41,1.41,0,0,1,1.21-.66.82.82,0,0,1,.87.94,3.49,3.49,0,0,1-.07.56l-.38,1.95h-.8l.35-1.91a1.26,1.26,0,0,0,.07-.38c0-.28-.1-.49-.45-.49s-.83.45-1,1.22l-.28,1.57Z"/></g><g class="cls-8"><path class="cls-7" d="M35,36.52h0a6,6,0,0,1,0-.73,1.45,1.45,0,0,1-1.21.84c-.62,0-1-.49-1-1.18a2.3,2.3,0,0,1,2.39-2.37,4.11,4.11,0,0,1,1,.14L35.88,35a8.38,8.38,0,0,0-.14,1.53Zm.31-2.78h0a.86.86,0,0,0-.35,0,1.56,1.56,0,0,0-1.32,1.6c0,.35.14.66.48.66s.83-.49,1-1.36Z"/></g><g class="cls-8"><path class="cls-7" d="M36.19,36.52h0l.45-2.33c.07-.38.14-.77.17-1h.73l-.1.59h0a1.41,1.41,0,0,1,1.21-.66.82.82,0,0,1,.87.94,3.49,3.49,0,0,1-.07.56l-.38,1.95h-.8l.35-1.91a1.31,1.31,0,0,0,0-.38c0-.28-.1-.49-.42-.49s-.83.45-1,1.22L37,36.52Z"/></g><g class="cls-8"><path class="cls-7" d="M43.46,31.57h0l-.73,3.76c-.07.38-.1.84-.14,1.18h-.73l.07-.59h0a1.38,1.38,0,0,1-1.14.7c-.62,0-1-.49-1-1.25a2.19,2.19,0,0,1,2.11-2.3,1.26,1.26,0,0,1,.52.1l.31-1.6Zm-1.21,2.26h0a.67.67,0,0,0-.49-.14c-.69,0-1.21.77-1.21,1.53,0,.42.17.73.55.73s.8-.42.94-1.11Z"/></g><g class="cls-8"><path class="cls-7" d="M47.45,36.38h0a2.81,2.81,0,0,1-1.25.24,1.84,1.84,0,0,1-2-2,2.75,2.75,0,0,1,1.11-2.3,2.65,2.65,0,0,1,1.73-.56,1.86,1.86,0,0,1,1,.21l-.24.63a2.17,2.17,0,0,0-.86-.14,1.74,1.74,0,0,0-1.18.42,2.23,2.23,0,0,0-.69,1.64,1.24,1.24,0,0,0,1.32,1.39,2.47,2.47,0,0,0,.93-.17Z"/></g><g class="cls-8"><path class="cls-7" d="M51,34.46h0a2,2,0,0,1-2,2.16,1.31,1.31,0,0,1-1.35-1.43,2,2,0,0,1,1.94-2.12A1.33,1.33,0,0,1,51,34.46Zm-2.49.73h0c0,.45.24.8.66.8.59,0,1-.84,1-1.53a.68.68,0,0,0-.66-.77C48.87,33.7,48.52,34.57,48.52,35.19Z"/></g><g class="cls-8"><path class="cls-7" d="M51,36.52h0l.45-2.33c.07-.38.1-.77.17-1h.7l-.07.59h0a1.42,1.42,0,0,1,1.21-.66c.48,0,.83.28.83.94a3,3,0,0,1,0,.56l-.38,1.95h-.8l.35-1.91a1.23,1.23,0,0,0,0-.38c0-.28-.11-.49-.42-.49s-.83.45-1,1.22l-.31,1.57Z"/></g><g class="cls-8"><path class="cls-7" d="M56.21,32.27h0l-.18.87h.76l-.14.63H55.9l-.24,1.36a2.55,2.55,0,0,0-.07.49.27.27,0,0,0,.31.31.85.85,0,0,0,.28,0l-.1.63a1.12,1.12,0,0,1-.52.07c-.55,0-.79-.28-.79-.7a5.17,5.17,0,0,1,.07-.63l.31-1.5h-.45l.1-.63h.45l.14-.63Z"/></g><g class="cls-8"><path class="cls-7" d="M56.45,36.52h0l.38-2.09A11.11,11.11,0,0,0,57,33.14h.73l-.11.7h0a1.23,1.23,0,0,1,1-.77h.21l-.17.8H58.6c-.59,0-1,.56-1.08,1.29l-.28,1.36Z"/></g><g class="cls-8"><path class="cls-7" d="M61.89,34.46h0a2,2,0,0,1-1.94,2.16,1.32,1.32,0,0,1-1.38-1.43,2,2,0,0,1,1.94-2.12A1.31,1.31,0,0,1,61.89,34.46Zm-2.49.73h0c0,.45.24.8.66.8.62,0,1-.84,1-1.53,0-.35-.14-.77-.62-.77C59.78,33.7,59.39,34.57,59.39,35.19Z"/></g><g class="cls-9"><polygon class="cls-7" points="61.92 36.52 61.92 36.52 62.86 31.57 63.66 31.57 62.72 36.52 61.92 36.52"/></g></g></g></g></svg>