<?xml version="1.0" encoding="UTF-8" standalone="no"?>
<!-- Generator: Adobe Illustrator 18.1.1, SVG Export Plug-In . SVG Version: 6.00 Build 0)  -->

<svg
   xmlns:dc="http://purl.org/dc/elements/1.1/"
   xmlns:cc="http://creativecommons.org/ns#"
   xmlns:rdf="http://www.w3.org/1999/02/22-rdf-syntax-ns#"
   xmlns:svg="http://www.w3.org/2000/svg"
   xmlns="http://www.w3.org/2000/svg"
   xmlns:sodipodi="http://sodipodi.sourceforge.net/DTD/sodipodi-0.dtd"
   xmlns:inkscape="http://www.inkscape.org/namespaces/inkscape"
   version="1.1"
   x="0px"
   y="0px"
   viewBox="0 0 70.9 49.6"
   enable-background="new 0 0 70.9 49.6"
   xml:space="preserve"
   id="svg4618"
   sodipodi:docname="PackMLManual.svg"
   inkscape:export-filename="C:\Users\toohey-1\Downloads\25_OMAC\repository\packml-hmi\images\Manual.png"
   inkscape:export-xdpi="250.60001"
   inkscape:export-ydpi="250.60001"
   inkscape:version="0.92.1 r15371"><metadata
     id="metadata4624"><rdf:RDF><cc:Work
         rdf:about=""><dc:format>image/svg+xml</dc:format><dc:type
           rdf:resource="http://purl.org/dc/dcmitype/StillImage" /><dc:title></dc:title></cc:Work></rdf:RDF></metadata><defs
     id="defs4622" /><sodipodi:namedview
     pagecolor="#ffffff"
     bordercolor="#666666"
     borderopacity="1"
     objecttolerance="10"
     gridtolerance="10"
     guidetolerance="10"
     inkscape:pageopacity="0"
     inkscape:pageshadow="2"
     inkscape:window-width="1920"
     inkscape:window-height="1017"
     id="namedview4620"
     showgrid="false"
     inkscape:zoom="4.0056417"
     inkscape:cx="35.450001"
     inkscape:cy="14.814084"
     inkscape:window-x="1672"
     inkscape:window-y="-8"
     inkscape:window-maximized="1"
     inkscape:current-layer="svg4618" /><g
     id="Layer_2"
     display="none" /><g
     id="Menu" /><g
     id="SubMenu"
     display="none" /><g
     id="_x31_2-column" /><g
     id="X-Series" /><g
     id="_x31_2-column-grid" /><g
     id="Operator"
     display="none" /><path
     style="fill:#ffffff;stroke:#004494;stroke-width:1.20000005;stroke-linecap:butt;stroke-linejoin:miter;stroke-miterlimit:4;stroke-dasharray:none;stroke-opacity:1"
     d="m 52.058551,48.366325 c 0,0 -1.175721,-4.348876 -1.637618,-6.551086 -0.16708,-0.796587 -0.422799,-1.593384 -0.409427,-2.406516 0.0112,-0.681633 0.325144,-1.328734 0.409427,-2.005437 0.121329,-0.974217 0.113705,-1.960112 0.136467,-2.941311 0.01757,-0.75741 0.02121,-1.612824 -0.04825,-2.36737 -0.137028,-1.488715 -0.351869,-2.980896 -0.57758,-4.459216 -0.230381,-1.508891 -0.465704,-2.901833 -0.738872,-4.403859 -0.205153,-1.128007 -0.485172,-2.244225 -0.818808,-3.342376 -0.192917,-0.634989 -0.409733,-1.265461 -0.68236,-1.871753 -0.35276,-0.784462 -0.548441,-1.733061 -1.228212,-2.27282 -0.51457,-0.408564 -1.249563,-0.575839 -1.910574,-0.534795 -0.691492,0.04293 -1.384465,0.360473 -1.910574,0.80218 -0.325858,0.27359 -0.626705,0.652692 -0.68236,1.069568 -0.08026,0.601022 0.545889,1.738034 0.545889,1.738034 0,0 -0.490444,-1.056354 -0.68236,-1.604346 -0.16833,-0.48061 -0.181532,-1.014202 -0.409405,-1.470641 -0.199869,-0.400345 -0.424533,-0.847286 -0.818809,-1.069572 -0.674873,-0.3805 -1.546543,-0.355558 -2.319977,-0.267394 -0.528872,0.06027 -1.125753,0.164872 -1.501174,0.534787 -0.476797,0.469805 -0.666242,1.209402 -0.682341,1.87173 -0.02601,1.071133 0.955279,3.075022 0.955279,3.075022 0,0 -0.69753,-3.146823 -1.637639,-4.411966 -0.30526,-0.410792 -0.729856,-0.795107 -1.228214,-0.935877 -0.439281,-0.124072 -0.937522,-0.02585 -1.364698,0.133698 -0.578143,0.215949 -1.115274,0.595747 -1.501168,1.069572 -0.432142,0.530607 -0.784516,1.193773 -0.818814,1.871739 -0.04484,0.88687 0.818814,2.540214 0.818814,2.540214 0,0 -4.097797,-10.4837266 -6.004664,-15.7760889 C 25.071115,3.7159938 25.043616,2.9502376 24.628189,2.3750088 24.328619,1.9601941 23.882409,1.6256633 23.399954,1.4391333 22.932574,1.2584602 22.379968,1.1637154 21.898785,1.3054492 c -0.557877,0.1642979 -1.129941,0.5472303 -1.364679,1.0695596 -0.275563,0.6131781 0.03272,1.3432253 0.136467,2.0054363 1.434237,9.1560619 6.686999,27.0065429 6.686999,27.0065429 l -3.548213,-7.219582 c 0,0 -1.492987,-3.156882 -2.86585,-4.144555 -0.382793,-0.27541 -0.891531,-0.441097 -1.364701,-0.40109 -0.506699,0.04284 -0.974211,0.34922 -1.364685,0.668469 -0.349246,0.28556 -0.73227,0.63206 -0.818827,1.069587 -0.134381,0.679183 0.326186,1.347918 0.545871,2.005422 0.622822,1.864047 2.183529,5.481513 2.183529,5.481513 0,0 1.217676,3.054228 1.910578,4.545658 0.379241,0.816293 0.703588,1.671537 1.228214,2.406531 0.645418,0.904225 1.46172,1.692029 2.319978,2.406524 1.422928,1.184578 4.639978,3.074996 4.639978,3.074996 l 2.729382,2.139138 1.774107,2.005423 0.955274,2.673918"
     id="path4211"
     inkscape:connector-curvature="0"
     sodipodi:nodetypes="cssssssssssssscsssssscssssscssssssccssssscssscccc" /></svg>