<?xml version="1.0" encoding="UTF-8" standalone="no"?>
<!-- Generator: Adobe Illustrator 18.1.1, SVG Export Plug-In . SVG Version: 6.00 Build 0)  -->

<svg
   xmlns:dc="http://purl.org/dc/elements/1.1/"
   xmlns:cc="http://creativecommons.org/ns#"
   xmlns:rdf="http://www.w3.org/1999/02/22-rdf-syntax-ns#"
   xmlns:svg="http://www.w3.org/2000/svg"
   xmlns="http://www.w3.org/2000/svg"
   xmlns:sodipodi="http://sodipodi.sourceforge.net/DTD/sodipodi-0.dtd"
   xmlns:inkscape="http://www.inkscape.org/namespaces/inkscape"
   version="1.1"
   x="0px"
   y="0px"
   viewBox="0 0 70.9 49.6"
   enable-background="new 0 0 70.9 49.6"
   xml:space="preserve"
   id="svg42"
   sodipodi:docname="PackMLSettings.svg"
   inkscape:export-filename="C:\Users\toohey-1\Downloads\25_OMAC\repository\packml-hmi\images\Settings.png"
   inkscape:export-xdpi="300.44745"
   inkscape:export-ydpi="300.44745"
   inkscape:version="0.92.1 r15371"><metadata
     id="metadata48"><rdf:RDF><cc:Work
         rdf:about=""><dc:format>image/svg+xml</dc:format><dc:type
           rdf:resource="http://purl.org/dc/dcmitype/StillImage" /><dc:title></dc:title></cc:Work></rdf:RDF></metadata><defs
     id="defs46" /><sodipodi:namedview
     pagecolor="#ffffff"
     bordercolor="#666666"
     borderopacity="1"
     objecttolerance="10"
     gridtolerance="10"
     guidetolerance="10"
     inkscape:pageopacity="0"
     inkscape:pageshadow="2"
     inkscape:window-width="1680"
     inkscape:window-height="987"
     id="namedview44"
     showgrid="false"
     inkscape:zoom="4.0056417"
     inkscape:cx="-45.13574"
     inkscape:cy="24.974825"
     inkscape:window-x="-8"
     inkscape:window-y="31"
     inkscape:window-maximized="1"
     inkscape:current-layer="svg42" /><g
     id="Layer_2"
     display="none" /><g
     id="Menu" /><g
     id="SubMenu"
     display="none" /><g
     id="_x31_2-column" /><g
     id="X-Series" /><g
     id="_x31_2-column-grid" /><g
     id="Operator"
     display="none" /><rect
     style="opacity:0.98999999;fill:none;fill-opacity:1;stroke:#f0f7ff;stroke-width:0.09999999;stroke-linecap:round;stroke-linejoin:round;stroke-miterlimit:10;stroke-dasharray:none;stroke-dashoffset:0;stroke-opacity:1"
     id="rect4573"
     width="70.151588"
     height="48.930988"
     x="0.74841624"
     y="0.66901147"
     ry="0"
     rx="0"
     inkscape:export-filename="C:\Users\toohey-1\Downloads\25_OMAC\repository\packml-hmi\images\Settings.png"
     inkscape:export-xdpi="250.60001"
     inkscape:export-ydpi="250.60001" /><ellipse
     style="opacity:0.98999999;fill:none;fill-opacity:1;stroke:#004494;stroke-width:1.10000002;stroke-linecap:round;stroke-linejoin:round;stroke-miterlimit:4;stroke-dasharray:none;stroke-dashoffset:0;stroke-opacity:1"
     id="path4501"
     cx="29.139034"
     cy="32.323803"
     rx="7.5753145"
     ry="7.4046235"
     inkscape:export-filename="C:\Users\toohey-1\Downloads\25_OMAC\repository\packml-hmi\images\Settings.png"
     inkscape:export-xdpi="250.60001"
     inkscape:export-ydpi="250.60001" /><path
     style="opacity:0.98999999;fill:none;fill-opacity:1;stroke:#004494;stroke-width:1.10000002;stroke-linecap:round;stroke-linejoin:round;stroke-miterlimit:4;stroke-dasharray:none;stroke-dashoffset:0;stroke-opacity:1"
     d="m 27.402871,15.97178 c -0.437159,0 -0.789096,0.309906 -0.789096,0.694483 v 2.000598 a 14.203715,13.883668 0 0 0 -5.562196,2.262726 l -1.454894,-1.422112 c -0.278208,-0.271938 -0.751229,-0.247919 -1.060347,0.05424 l -2.455135,2.399815 c -0.309117,0.302151 -0.333689,0.764516 -0.05548,1.036453 l 1.447189,1.41458 a 14.203715,13.883668 0 0 0 -2.299474,5.442894 h -2.052885 c -0.393442,0 -0.710493,0.344008 -0.710493,0.771315 v 3.394087 c 0,0.427309 0.317051,0.771315 0.710493,0.771315 h 2.045175 a 14.203715,13.883668 0 0 0 2.314885,5.435361 l -1.454894,1.422112 c -0.278206,0.271937 -0.253634,0.734302 0.05548,1.036454 l 2.455135,2.399815 c 0.309118,0.302151 0.78214,0.327677 1.060346,0.05575 l 1.447189,-1.414581 a 14.203715,13.883668 0 0 0 5.569903,2.247661 v 2.006623 c 0,0.384577 0.351936,0.694485 0.789095,0.694485 h 3.472326 c 0.43716,0 0.789095,-0.309908 0.789095,-0.694485 v -1.999091 a 14.203715,13.883668 0 0 0 5.560656,-2.262724 l 1.454896,1.422113 c 0.278205,0.271937 0.751229,0.246413 1.060347,-0.05575 l 2.455133,-2.399815 c 0.309118,-0.302152 0.33369,-0.764517 0.05548,-1.036454 l -1.447189,-1.41458 a 14.203715,13.883668 0 0 0 2.299473,-5.442893 h 2.054421 c 0.393443,0 0.710496,-0.344006 0.710496,-0.771315 v -3.394087 c 0,-0.427307 -0.317053,-0.771315 -0.710496,-0.771315 H 43.110792 A 14.203715,13.883668 0 0 0 40.795906,24.4201 l 1.454895,-1.422113 c 0.278207,-0.271938 0.253635,-0.734302 -0.05548,-1.036454 l -2.455134,-2.399817 c -0.309118,-0.302152 -0.782141,-0.326171 -1.060346,-0.05423 l -1.445647,1.413073 a 14.203715,13.883668 0 0 0 -5.5699,-2.247663 v -2.006625 c 0,-0.384577 -0.351936,-0.694483 -0.789095,-0.694483 z"
     id="path4501-0"
     inkscape:connector-curvature="0"
     inkscape:export-filename="C:\Users\toohey-1\Downloads\25_OMAC\repository\packml-hmi\images\Settings.png"
     inkscape:export-xdpi="250.60001"
     inkscape:export-ydpi="250.60001" /><path
     inkscape:connector-curvature="0"
     style="fill:#ffffff;stroke:#004494;stroke-width:0.99999994;stroke-miterlimit:10"
     stroke-miterlimit="10"
     d="m 57.705032,19.980262 -0.968956,-1.005628 c 0.435606,-0.694955 0.755723,-1.428997 0.997292,-2.23907 0.240807,-0.810551 0.365731,-1.600346 0.388874,-2.42064 l 1.361407,-0.310801 c 0.829843,-0.193681 1.369691,-1.080315 1.175928,-1.909878 L 60.082313,9.7717119 C 59.88779,8.9416728 59.000477,8.4013665 58.170634,8.5950449 L 56.759095,8.8910722 C 55.960676,7.4949427 54.783364,6.2616826 53.399488,5.3528962 L 53.791182,4.0359908 C 54.047609,3.1751395 53.695616,2.1327171 52.885159,1.8911002 L 50.605687,1.2115234 C 49.744334,0.95465636 48.966412,1.7152163 48.725605,2.525767 l -0.392454,1.3164285 c -1.655166,0.00283 -3.365743,0.3749544 -4.796664,1.1062803 L 42.51664,3.9275989 C 41.928368,3.3112067 40.890168,3.2772562 40.27347,3.8652018 l -1.752341,1.6281825 c -0.6167,0.5879447 -0.649911,1.6256522 -0.06088,2.2425199 l 0.968955,1.0056275 c -0.435604,0.6949525 -0.75572,1.4289953 -0.99729,2.2390693 -0.240806,0.81055 -0.365731,1.600346 -0.388872,2.42064 l -1.36141,0.310803 c -0.829844,0.193682 -1.36969,1.080317 -1.175927,1.909879 l 0.527131,2.307761 c 0.193764,0.829561 1.081078,1.369869 1.910919,1.176189 l 1.411538,-0.296027 c 0.798421,1.39613 2.026622,2.64464 3.410498,3.553427 L 42.3741,23.680178 c -0.241568,0.810073 0.08447,1.569056 0.945814,1.825923 l 2.279471,0.679577 c 0.861353,0.256866 1.599485,-0.184726 1.840293,-0.995277 l 0.392454,-1.31643 c 1.655166,-0.0028 3.314853,-0.390205 4.745773,-1.121534 l 0.969716,1.006106 c 0.588274,0.616391 1.626474,0.650343 2.24241,0.06192 l 1.753101,-1.627706 c 0.71772,-0.557922 0.750935,-1.595627 0.161896,-2.212495 z M 46.323919,19.674737 c -3.24261,-0.966945 -5.057382,-4.3201 -4.09263,-7.561346 0.96399,-3.241723 4.316575,-5.0541541 7.559184,-4.0872103 3.241847,0.9664669 5.057381,4.3201003 4.092631,7.5613443 -0.964751,3.241247 -4.317338,5.053678 -7.559185,4.087212 z"
     id="path2-0-4"
     inkscape:export-filename="C:\Users\toohey-1\Downloads\25_OMAC\repository\packml-hmi\images\Settings.png"
     inkscape:export-xdpi="250.60001"
     inkscape:export-ydpi="250.60001" /></svg>