<?xml version="1.0" encoding="UTF-8" standalone="no"?>
<!-- Generator: Adobe Illustrator 18.1.1, SVG Export Plug-In . SVG Version: 6.00 Build 0)  -->

<svg
   xmlns:dc="http://purl.org/dc/elements/1.1/"
   xmlns:cc="http://creativecommons.org/ns#"
   xmlns:rdf="http://www.w3.org/1999/02/22-rdf-syntax-ns#"
   xmlns:svg="http://www.w3.org/2000/svg"
   xmlns="http://www.w3.org/2000/svg"
   xmlns:sodipodi="http://sodipodi.sourceforge.net/DTD/sodipodi-0.dtd"
   xmlns:inkscape="http://www.inkscape.org/namespaces/inkscape"
   version="1.1"
   x="0px"
   y="0px"
   viewBox="0 0 70.9 49.6"
   enable-background="new 0 0 70.9 49.6"
   xml:space="preserve"
   id="svg42"
   sodipodi:docname="PackMLSettingsUsage.svg"
   inkscape:export-filename="C:\Users\toohey-1\Downloads\25_OMAC\repository\packml-hmi\images\Settings.png"
   inkscape:export-xdpi="300.44745"
   inkscape:export-ydpi="300.44745"
   inkscape:version="0.92.1 r15371"><metadata
     id="metadata48"><rdf:RDF><cc:Work
         rdf:about=""><dc:format>image/svg+xml</dc:format><dc:type
           rdf:resource="http://purl.org/dc/dcmitype/StillImage" /><dc:title></dc:title></cc:Work></rdf:RDF></metadata><defs
     id="defs46" /><sodipodi:namedview
     pagecolor="#ffffff"
     bordercolor="#666666"
     borderopacity="1"
     objecttolerance="10"
     gridtolerance="10"
     guidetolerance="10"
     inkscape:pageopacity="0"
     inkscape:pageshadow="2"
     inkscape:window-width="1920"
     inkscape:window-height="1017"
     id="namedview44"
     showgrid="false"
     inkscape:zoom="4.0056417"
     inkscape:cx="-35.650678"
     inkscape:cy="24.974825"
     inkscape:window-x="1672"
     inkscape:window-y="31"
     inkscape:window-maximized="1"
     inkscape:current-layer="svg42" /><g
     id="Layer_2"
     display="none" /><g
     id="Menu" /><g
     id="SubMenu"
     display="none" /><g
     id="_x31_2-column" /><g
     id="X-Series" /><g
     id="_x31_2-column-grid" /><g
     id="Operator"
     display="none" /><rect
     style="opacity:0.98999999;fill:none;fill-opacity:1;stroke:#f0f7ff;stroke-width:0.09999999;stroke-linecap:round;stroke-linejoin:round;stroke-miterlimit:10;stroke-dasharray:none;stroke-dashoffset:0;stroke-opacity:1"
     id="rect4573"
     width="70.151588"
     height="48.930988"
     x="0.74841624"
     y="0.66901147"
     ry="0"
     rx="0"
     inkscape:export-filename="C:\Users\toohey-1\Downloads\25_OMAC\repository\packml-hmi\images\Settings.png"
     inkscape:export-xdpi="300"
     inkscape:export-ydpi="300" /><ellipse
     style="opacity:0.98999999;fill:none;fill-opacity:1;stroke:#004494;stroke-width:1.1;stroke-linecap:round;stroke-linejoin:round;stroke-miterlimit:4;stroke-dasharray:none;stroke-dashoffset:0;stroke-opacity:1"
     id="path4501"
     cx="29.139034"
     cy="32.323803"
     rx="7.5753145"
     ry="7.4046235"
     inkscape:export-filename="C:\Users\toohey-1\Downloads\25_OMAC\repository\packml-hmi\images\Settings.png"
     inkscape:export-xdpi="300"
     inkscape:export-ydpi="300" /><path
     style="opacity:0.98999999;fill:none;fill-opacity:1;stroke:#004494;stroke-width:1.10000002;stroke-linecap:round;stroke-linejoin:round;stroke-miterlimit:4;stroke-dasharray:none;stroke-dashoffset:0;stroke-opacity:1"
     d="m 27.402871,15.97178 c -0.437159,0 -0.789096,0.309906 -0.789096,0.694483 v 2.000598 a 14.203715,13.883668 0 0 0 -5.562196,2.262726 l -1.454894,-1.422112 c -0.278208,-0.271938 -0.751229,-0.247919 -1.060347,0.05424 l -2.455135,2.399815 c -0.309117,0.302151 -0.333689,0.764516 -0.05548,1.036453 l 1.447189,1.41458 a 14.203715,13.883668 0 0 0 -2.299474,5.442894 h -2.052885 c -0.393442,0 -0.710493,0.344008 -0.710493,0.771315 v 3.394087 c 0,0.427309 0.317051,0.771315 0.710493,0.771315 h 2.045175 a 14.203715,13.883668 0 0 0 2.314885,5.435361 l -1.454894,1.422112 c -0.278206,0.271937 -0.253634,0.734302 0.05548,1.036454 l 2.455135,2.399815 c 0.309118,0.302151 0.78214,0.327677 1.060346,0.05575 l 1.447189,-1.414581 a 14.203715,13.883668 0 0 0 5.569903,2.247661 v 2.006623 c 0,0.384577 0.351936,0.694485 0.789095,0.694485 h 3.472326 c 0.43716,0 0.789095,-0.309908 0.789095,-0.694485 v -1.999091 a 14.203715,13.883668 0 0 0 5.560656,-2.262724 l 1.454896,1.422113 c 0.278205,0.271937 0.751229,0.246413 1.060347,-0.05575 l 2.455133,-2.399815 c 0.309118,-0.302152 0.33369,-0.764517 0.05548,-1.036454 l -1.447189,-1.41458 a 14.203715,13.883668 0 0 0 2.299473,-5.442893 h 2.054421 c 0.393443,0 0.710496,-0.344006 0.710496,-0.771315 v -3.394087 c 0,-0.427307 -0.317053,-0.771315 -0.710496,-0.771315 H 43.110792 A 14.203715,13.883668 0 0 0 40.795906,24.4201 l 1.454895,-1.422113 c 0.278207,-0.271938 0.253635,-0.734302 -0.05548,-1.036454 l -2.455134,-2.399817 c -0.309118,-0.302152 -0.782141,-0.326171 -1.060346,-0.05423 l -1.445647,1.413073 a 14.203715,13.883668 0 0 0 -5.5699,-2.247663 v -2.006625 c 0,-0.384577 -0.351936,-0.694483 -0.789095,-0.694483 z"
     id="path4501-0"
     inkscape:connector-curvature="0"
     inkscape:export-filename="C:\Users\toohey-1\Downloads\25_OMAC\repository\packml-hmi\images\Settings.png"
     inkscape:export-xdpi="300"
     inkscape:export-ydpi="300" /><path
     inkscape:connector-curvature="0"
     style="fill:#ffffff;stroke:#004494;stroke-width:0.99999994;stroke-miterlimit:10"
     stroke-miterlimit="10"
     d="m 57.705032,19.980262 -0.968956,-1.005628 c 0.435606,-0.694955 0.755723,-1.428997 0.997292,-2.23907 0.240807,-0.810551 0.365731,-1.600346 0.388874,-2.42064 l 1.361407,-0.310801 c 0.829843,-0.193681 1.369691,-1.080315 1.175928,-1.909878 L 60.082313,9.7717119 C 59.88779,8.9416728 59.000477,8.4013665 58.170634,8.5950449 L 56.759095,8.8910722 C 55.960676,7.4949427 54.783364,6.2616826 53.399488,5.3528962 L 53.791182,4.0359908 C 54.047609,3.1751395 53.695616,2.1327171 52.885159,1.8911002 L 50.605687,1.2115234 C 49.744334,0.95465636 48.966412,1.7152163 48.725605,2.525767 l -0.392454,1.3164285 c -1.655166,0.00283 -3.365743,0.3749544 -4.796664,1.1062803 L 42.51664,3.9275989 C 41.928368,3.3112067 40.890168,3.2772562 40.27347,3.8652018 l -1.752341,1.6281825 c -0.6167,0.5879447 -0.649911,1.6256522 -0.06088,2.2425199 l 0.968955,1.0056275 c -0.435604,0.6949525 -0.75572,1.4289953 -0.99729,2.2390693 -0.240806,0.81055 -0.365731,1.600346 -0.388872,2.42064 l -1.36141,0.310803 c -0.829844,0.193682 -1.36969,1.080317 -1.175927,1.909879 l 0.527131,2.307761 c 0.193764,0.829561 1.081078,1.369869 1.910919,1.176189 l 1.411538,-0.296027 c 0.798421,1.39613 2.026622,2.64464 3.410498,3.553427 L 42.3741,23.680178 c -0.241568,0.810073 0.08447,1.569056 0.945814,1.825923 l 2.279471,0.679577 c 0.861353,0.256866 1.599485,-0.184726 1.840293,-0.995277 l 0.392454,-1.31643 c 1.655166,-0.0028 3.314853,-0.390205 4.745773,-1.121534 l 0.969716,1.006106 c 0.588274,0.616391 1.626474,0.650343 2.24241,0.06192 l 1.753101,-1.627706 c 0.71772,-0.557922 0.750935,-1.595627 0.161896,-2.212495 z M 46.323919,19.674737 c -3.24261,-0.966945 -5.057382,-4.3201 -4.09263,-7.561346 0.96399,-3.241723 4.316575,-5.0541541 7.559184,-4.0872103 3.241847,0.9664669 5.057381,4.3201003 4.092631,7.5613443 -0.964751,3.241247 -4.317338,5.053678 -7.559185,4.087212 z"
     id="path2-0-4"
     inkscape:export-filename="C:\Users\toohey-1\Downloads\25_OMAC\repository\packml-hmi\images\Settings.png"
     inkscape:export-xdpi="300"
     inkscape:export-ydpi="300" /><path
     style="opacity:1;fill:#ffffff;fill-opacity:1;stroke:#004494;stroke-width:1.10000002;stroke-linecap:round;stroke-linejoin:round;stroke-miterlimit:4;stroke-dasharray:none;stroke-dashoffset:0;stroke-opacity:1"
     d="m -67.300743,5.3558133 1.03915,0.5676327 -3.33e-4,8.237e-4 5.491256,2.9995607 0.178278,7.5379136 -6.438853,3.923377 -5.491256,-2.999532 -3.67e-4,4.12e-4 -0.840275,-0.459016 a 11.285176,11.285176 0 0 0 3.053151,6.329678 11.285176,11.285176 0 0 0 11.958236,2.757348 l 21.483236,22.246508 c 1.119986,1.159769 2.955306,1.191805 4.115075,0.07183 l 3.826101,-3.694784 c 1.159728,-1.11997 1.191767,-2.955302 0.07182,-4.115071 L -51.10598,17.481411 a 11.285176,11.285176 0 0 0 -2.968196,-9.9034307 11.285176,11.285176 0 0 0 -13.2266,-2.2221094 z"
     id="path4539-6"
     inkscape:connector-curvature="0"
     inkscape:export-xdpi="300"
     inkscape:export-ydpi="300" /><rect
     style="opacity:1;fill:#004494;fill-opacity:1;stroke:none;stroke-width:0.02109045;stroke-linecap:round;stroke-miterlimit:4;stroke-dasharray:none;stroke-dashoffset:0;stroke-opacity:1"
     id="driver-shaft"
     width="2.0326381"
     height="29.981398"
     x="-16.884748"
     y="31.829018"
     ry="0"
     transform="rotate(45.045584)"
     inkscape:export-xdpi="300"
     inkscape:export-ydpi="300" /><rect
     style="opacity:0.98999999;fill:#ffffff;fill-opacity:1;stroke:#004494;stroke-width:1.10000002;stroke-linecap:round;stroke-miterlimit:4;stroke-dasharray:none;stroke-dashoffset:0;stroke-opacity:1"
     id="driver-handle"
     width="8.892787"
     height="29.981398"
     x="-20.314829"
     y="52.536522"
     ry="2.6678367"
     transform="rotate(45.045584)"
     inkscape:export-xdpi="300"
     inkscape:export-ydpi="300" /><path
     style="fill:#ffffff;fill-opacity:1;stroke:#004494;stroke-width:1.10000002;stroke-linecap:butt;stroke-linejoin:round;stroke-miterlimit:4;stroke-dasharray:none;stroke-opacity:1"
     d="m -29.840721,4.033124 -5.610437,4.404754 0.771011,3.763603 3.762392,0.776994 4.413686,-5.6033987 z"
     id="driver-blade"
     inkscape:connector-curvature="0"
     inkscape:export-xdpi="300"
     inkscape:export-ydpi="300" /><text
     inkscape:export-ydpi="300"
     inkscape:export-xdpi="300"
     xml:space="preserve"
     style="font-style:normal;font-weight:normal;font-size:37.43547821px;line-height:1.25;font-family:sans-serif;letter-spacing:0px;word-spacing:0px;overflow:visible;fill:#004494;fill-opacity:1;stroke:none;stroke-width:0.93588698"
     x="13.360809"
     y="74.731537"
     id="text12-2-9-9-0"
     transform="scale(1.1008352,0.90840118)"><tspan
       sodipodi:role="line"
       id="tspan10-4-5-4-9"
       x="13.360809"
       y="74.731537"
       style="font-style:normal;font-variant:normal;font-weight:normal;font-stretch:normal;font-size:13.7263422px;font-family:Antonio;-inkscape-font-specification:Antonio;fill:#004494;fill-opacity:1;stroke-width:0.93588698">Settings</tspan></text>
<text
     inkscape:export-ydpi="300"
     inkscape:export-xdpi="300"
     xml:space="preserve"
     style="font-style:normal;font-weight:normal;font-size:37.43547821px;line-height:1.25;font-family:sans-serif;letter-spacing:0px;word-spacing:0px;overflow:visible;fill:#004494;fill-opacity:1;stroke:none;stroke-width:0.93588698"
     x="-65.370247"
     y="74.731537"
     id="text12-2-9-9-0-2"
     transform="scale(1.1008352,0.90840118)"><tspan
       sodipodi:role="line"
       id="tspan10-4-5-4-9-4"
       x="-65.370247"
       y="74.731537"
       style="font-style:normal;font-variant:normal;font-weight:normal;font-stretch:normal;font-size:13.7263422px;font-family:Antonio;-inkscape-font-specification:Antonio;fill:#004494;fill-opacity:1;stroke-width:0.93588698">Settings</tspan></text>
<path
     inkscape:export-ydpi="300"
     inkscape:export-xdpi="300"
     style="overflow:visible;fill:#ff00ff;stroke:#ff00ff;stroke-width:0.93588698px;stroke-linecap:butt;stroke-linejoin:miter;stroke-opacity:1"
     d="m -67.811756,74.169798 37.76154,-81.5938245"
     id="path854-0-6-7"
     inkscape:connector-curvature="0"
     sodipodi:nodetypes="cc" /><rect
     style="opacity:0.98999999;fill:none;fill-opacity:1;stroke:#f0f7ff;stroke-width:0.09999999;stroke-linecap:round;stroke-linejoin:round;stroke-miterlimit:10;stroke-dasharray:none;stroke-dashoffset:0;stroke-opacity:1"
     id="rect4573-2"
     width="70.151588"
     height="48.930988"
     x="-164.8927"
     y="1.0893439"
     ry="0"
     rx="0"
     inkscape:export-filename="C:\Users\toohey-1\Downloads\25_OMAC\repository\packml-hmi\images\Settings.png"
     inkscape:export-xdpi="300"
     inkscape:export-ydpi="300" /><ellipse
     style="opacity:0.98999999;fill:none;fill-opacity:1;stroke:#004494;stroke-width:1.10000002;stroke-linecap:round;stroke-linejoin:round;stroke-miterlimit:4;stroke-dasharray:none;stroke-dashoffset:0;stroke-opacity:1"
     id="path4501-6"
     cx="-136.50208"
     cy="32.744137"
     rx="7.5753145"
     ry="7.4046235"
     inkscape:export-filename="C:\Users\toohey-1\Downloads\25_OMAC\repository\packml-hmi\images\Settings.png"
     inkscape:export-xdpi="300"
     inkscape:export-ydpi="300" /><g
     id="g926"
     inkscape:export-xdpi="300"
     inkscape:export-ydpi="300"><path
       inkscape:export-ydpi="300"
       inkscape:export-xdpi="300"
       inkscape:export-filename="C:\Users\toohey-1\Downloads\25_OMAC\repository\packml-hmi\images\Settings.png"
       inkscape:connector-curvature="0"
       id="path4501-0-9"
       d="m -138.23824,16.392113 c -0.43716,0 -0.7891,0.309906 -0.7891,0.694483 v 2.000598 a 14.203715,13.883668 0 0 0 -5.56219,2.262726 l -1.4549,-1.422112 c -0.27821,-0.271938 -0.75123,-0.247919 -1.06035,0.05424 l -2.45513,2.399815 c -0.30912,0.302151 -0.33369,0.764516 -0.0555,1.036453 l 1.44719,1.41458 a 14.203715,13.883668 0 0 0 -2.29948,5.442894 h -2.05288 c -0.39344,0 -0.71049,0.344008 -0.71049,0.771315 v 3.394087 c 0,0.427309 0.31705,0.771315 0.71049,0.771315 h 2.04517 a 14.203715,13.883668 0 0 0 2.31489,5.435361 l -1.45489,1.422112 c -0.27821,0.271937 -0.25364,0.734302 0.0555,1.036454 l 2.45513,2.399815 c 0.30912,0.302151 0.78214,0.327677 1.06035,0.05575 l 1.44719,-1.414581 a 14.203715,13.883668 0 0 0 5.5699,2.247661 v 2.006623 c 0,0.384577 0.35193,0.694485 0.78909,0.694485 h 3.47233 c 0.43716,0 0.78909,-0.309908 0.78909,-0.694485 v -1.999091 a 14.203715,13.883668 0 0 0 5.56066,-2.262724 l 1.4549,1.422113 c 0.2782,0.271937 0.75123,0.246413 1.06034,-0.05575 l 2.45514,-2.399815 c 0.30911,-0.302152 0.33369,-0.764517 0.0555,-1.036454 l -1.44719,-1.41458 a 14.203715,13.883668 0 0 0 2.29947,-5.442893 h 2.05442 c 0.39344,0 0.7105,-0.344006 0.7105,-0.771315 v -3.394087 c 0,-0.427307 -0.31706,-0.771315 -0.7105,-0.771315 h -2.04671 a 14.203715,13.883668 0 0 0 -2.31489,-5.435358 l 1.4549,-1.422113 c 0.2782,-0.271938 0.25363,-0.734302 -0.0555,-1.036454 l -2.45514,-2.399817 c -0.30911,-0.302152 -0.78214,-0.326171 -1.06034,-0.05423 l -1.44565,1.413073 a 14.203715,13.883668 0 0 0 -5.5699,-2.247663 v -2.006625 c 0,-0.384577 -0.35194,-0.694483 -0.78909,-0.694483 z"
       style="opacity:0.98999999;fill:none;fill-opacity:1;stroke:#004494;stroke-width:1.10000002;stroke-linecap:round;stroke-linejoin:round;stroke-miterlimit:4;stroke-dasharray:none;stroke-dashoffset:0;stroke-opacity:1" /><path
       inkscape:export-ydpi="300"
       inkscape:export-xdpi="300"
       inkscape:export-filename="C:\Users\toohey-1\Downloads\25_OMAC\repository\packml-hmi\images\Settings.png"
       id="path2-0-4-3"
       d="m -107.93608,20.400595 -0.96896,-1.005628 c 0.43561,-0.694955 0.75573,-1.428997 0.99729,-2.23907 0.24081,-0.810551 0.36574,-1.600346 0.38888,-2.42064 l 1.36141,-0.310801 c 0.82984,-0.193681 1.36969,-1.080315 1.17593,-1.909878 l -0.57727,-2.322533 c -0.19452,-0.8300395 -1.08184,-1.3703458 -1.91168,-1.1766674 l -1.41154,0.2960273 c -0.79842,-1.3961295 -1.97573,-2.6293896 -3.35961,-3.538176 l 0.3917,-1.3169054 c 0.25643,-0.8608513 -0.0956,-1.9032737 -0.90602,-2.1448906 l -2.27948,-0.6795768 c -0.86135,-0.256867 -1.63927,0.5036929 -1.88008,1.3142436 l -0.39245,1.3164285 c -1.65517,0.00283 -3.36575,0.3749544 -4.79667,1.1062803 l -1.01984,-1.0208769 c -0.58828,-0.6163922 -1.62648,-0.6503427 -2.24317,-0.062397 l -1.75234,1.6281825 c -0.6167,0.5879447 -0.64992,1.6256522 -0.0609,2.2425199 l 0.96895,1.0056275 c -0.4356,0.6949525 -0.75572,1.4289955 -0.99729,2.2390695 -0.24081,0.81055 -0.36573,1.600346 -0.38887,2.42064 l -1.36141,0.310803 c -0.82985,0.193682 -1.36969,1.080317 -1.17593,1.909879 l 0.52713,2.307761 c 0.19377,0.829561 1.08108,1.369869 1.91092,1.176189 l 1.41154,-0.296027 c 0.79842,1.39613 2.02662,2.64464 3.4105,3.553427 l -0.39169,1.316905 c -0.24157,0.810073 0.0845,1.569056 0.94581,1.825923 l 2.27947,0.679577 c 0.86135,0.256866 1.59949,-0.184726 1.84029,-0.995277 l 0.39246,-1.31643 c 1.65516,-0.0028 3.31485,-0.390205 4.74577,-1.121534 l 0.96972,1.006106 c 0.58827,0.616391 1.62647,0.650343 2.24241,0.06192 l 1.7531,-1.627706 c 0.71772,-0.557922 0.75093,-1.595627 0.16189,-2.212495 z m -11.38111,-0.305525 c -3.24261,-0.966945 -5.05739,-4.3201 -4.09263,-7.561346 0.96399,-3.2417233 4.31657,-5.0541544 7.55918,-4.0872106 3.24185,0.9664669 5.05738,4.3201006 4.09263,7.5613446 -0.96475,3.241247 -4.31734,5.053678 -7.55918,4.087212 z"
       stroke-miterlimit="10"
       style="fill:#ffffff;stroke:#004494;stroke-width:0.99999994;stroke-miterlimit:10"
       inkscape:connector-curvature="0" /></g><text
     inkscape:export-ydpi="300"
     inkscape:export-xdpi="300"
     xml:space="preserve"
     style="font-style:normal;font-weight:normal;font-size:37.43547821px;line-height:1.25;font-family:sans-serif;letter-spacing:0px;word-spacing:0px;overflow:visible;fill:#004494;fill-opacity:1;stroke:none;stroke-width:0.93588698"
     x="-135.29025"
     y="74.731537"
     id="text12-2-9-9-0-4"
     transform="scale(1.1008352,0.90840118)"><tspan
       sodipodi:role="line"
       id="tspan10-4-5-4-9-2"
       x="-135.29025"
       y="74.731537"
       style="font-style:normal;font-variant:normal;font-weight:normal;font-stretch:normal;font-size:13.7263422px;font-family:Antonio;-inkscape-font-specification:Antonio;fill:#004494;fill-opacity:1;stroke-width:0.93588698">System</tspan></text>
<path
     inkscape:export-ydpi="300"
     inkscape:export-xdpi="300"
     style="overflow:visible;fill:#ff00ff;stroke:#ff00ff;stroke-width:0.93588698px;stroke-linecap:butt;stroke-linejoin:miter;stroke-opacity:1"
     d="m -143.45507,74.169798 37.76154,-81.5938245"
     id="path854-0-6-7-0"
     inkscape:connector-curvature="0"
     sodipodi:nodetypes="cc" /></svg>