<?xml version="1.0" encoding="UTF-8" standalone="no"?>
<!-- Created with Inkscape (http://www.inkscape.org/) -->

<svg
   xmlns:dc="http://purl.org/dc/elements/1.1/"
   xmlns:cc="http://creativecommons.org/ns#"
   xmlns:rdf="http://www.w3.org/1999/02/22-rdf-syntax-ns#"
   xmlns:svg="http://www.w3.org/2000/svg"
   xmlns="http://www.w3.org/2000/svg"
   xmlns:sodipodi="http://sodipodi.sourceforge.net/DTD/sodipodi-0.dtd"
   xmlns:inkscape="http://www.inkscape.org/namespaces/inkscape"
   width="300.87592"
   height="415.36703"
   id="svg2"
   version="1.1"
   inkscape:version="0.92.1 r15371"
   sodipodi:docname="PackMLHandPressSingleFinger.svg">
  <defs
     id="defs4" />
  <sodipodi:namedview
     id="base"
     pagecolor="#ffffff"
     bordercolor="#666666"
     borderopacity="1.0"
     inkscape:pageopacity="0.0"
     inkscape:pageshadow="2"
     inkscape:zoom="0.35"
     inkscape:cx="481.928"
     inkscape:cy="610.78499"
     inkscape:document-units="px"
     inkscape:current-layer="layer1"
     showgrid="false"
     fit-margin-top="0"
     fit-margin-left="0"
     fit-margin-right="0"
     fit-margin-bottom="0"
     inkscape:window-width="1680"
     inkscape:window-height="987"
     inkscape:window-x="-8"
     inkscape:window-y="401"
     inkscape:window-maximized="1" />
  <metadata
     id="metadata7">
    <rdf:RDF>
      <cc:Work
         rdf:about="">
        <dc:format>image/svg+xml</dc:format>
        <dc:type
           rdf:resource="http://purl.org/dc/dcmitype/StillImage" />
        <dc:title />
      </cc:Work>
    </rdf:RDF>
  </metadata>
  <g
     inkscape:label="Layer 1"
     inkscape:groupmode="layer"
     id="layer1"
     transform="translate(324.21801,-997.94506)">
    <path
       style="fill:#ffffff;stroke:#000000;stroke-width:4.93967533;stroke-linecap:butt;stroke-linejoin:miter;stroke-miterlimit:4;stroke-dasharray:none;stroke-opacity:1"
       d="m -25.811916,1410.8422 c 0,0 -10.030666,-37.8723 -13.971381,-57.0503 -1.425429,-6.9371 -3.607115,-13.876 -3.493003,-20.9572 0.09547,-5.936 2.773952,-11.5713 3.493003,-17.4644 1.035189,-8.484 0.970155,-17.0697 1.164288,-25.6145 0.149835,-6.5959 0.180949,-14.0453 -0.411648,-20.6163 -1.169056,-12.9645 -3.002005,-25.9592 -4.927648,-38.8332 -1.965504,-13.1402 -3.973152,-25.2707 -6.303691,-38.3511 -1.750293,-9.8233 -4.139285,-19.5439 -6.985685,-29.1072 -1.645899,-5.5298 -3.495648,-11.0203 -5.821579,-16.3002 -3.009578,-6.8315 -4.679018,-15.0924 -10.478528,-19.7929 -4.390058,-3.558 -10.66065,-5.0147 -16.300106,-4.6573 -5.899456,0.374 -11.811586,3.1392 -16.300106,6.9858 -2.78005,2.3826 -5.34671,5.684 -5.82157,9.3144 -0.68464,5.234 4.65729,15.1357 4.65729,15.1357 0,0 -4.18423,-9.1993 -5.82158,-13.9715 -1.43612,-4.1854 -1.54874,-8.8322 -3.49284,-12.8071 -1.70517,-3.4864 -3.62193,-7.3786 -6.98568,-9.3144 -5.75769,-3.3136 -13.19437,-3.0964 -19.79295,-2.3286 -4.51207,0.5249 -9.60439,1.4358 -12.80727,4.6572 -4.06783,4.0913 -5.68408,10.5321 -5.82141,16.3 -0.22196,9.328 8.14998,26.7789 8.14998,26.7789 0,0 -5.951,-27.4042 -13.97155,-38.4217 -2.60436,-3.5774 -6.22679,-6.9242 -10.47853,-8.1501 -3.74774,-1.0805 -7.99849,-0.2251 -11.64298,1.1643 -4.93244,1.8806 -9.51497,5.1881 -12.80726,9.3144 -3.68682,4.6208 -6.6931,10.396 -6.9857,16.3001 -0.38265,7.7233 6.9857,22.1215 6.9857,22.1215 0,0 -34.9604,-91.2978 -51.22887,-137.3865 -2.04256,-5.7864 -2.27719,-12.455 -5.8214,-17.4644 -2.55579,-3.6124 -6.36264,-6.5257 -10.4787,-8.1501 -3.98747,-1.5734 -8.70206,-2.39847 -12.80727,-1.1642 -4.75954,1.4308 -9.6401,4.7656 -11.64281,9.3143 -2.35096,5.3399 0.27926,11.6975 1.16429,17.4644 12.23623,79.7358 57.05027,235.1872 57.05027,235.1872 l -30.27164,-62.8719 c 0,0 -12.73745,-27.4918 -24.45008,-36.093 -3.26578,-2.3984 -7.60611,-3.8413 -11.64298,-3.4929 -4.32287,0.3731 -8.31149,3.0412 -11.64281,5.8214 -2.97961,2.4868 -6.24737,5.5043 -6.98586,9.3145 -1.14649,5.9147 2.78285,11.7384 4.65713,17.4643 5.31361,16.2331 18.62883,47.7359 18.62883,47.7359 0,0 10.38863,26.5978 16.30011,39.586 3.23549,7.1087 6.0027,14.5566 10.47854,20.9573 5.50641,7.8745 12.4707,14.7351 19.79295,20.9573 12.13972,10.3159 39.58605,26.7787 39.58605,26.7787 l 23.28579,18.6287 15.13582,17.4643 8.14997,23.2859"
       id="path4211"
       inkscape:connector-curvature="0"
       sodipodi:nodetypes="cssssssssssssscsssssscssssscssssssccssssscssscccc" />
  </g>
</svg>
